<svg width="20" height="18" viewBox="0 0 20 18" fill="none" xmlns="http://www.w3.org/2000/svg">
<path d="M16.7832 3.6771C15.8955 2.90102 14.7231 2.43077 13.4774 2.3512C12.2317 2.27164 10.9949 2.588 9.99002 3.2432C8.93079 2.54723 7.61239 2.23165 6.30031 2.36C4.98823 2.48835 3.77993 3.0511 2.91874 3.93493C2.05754 4.81875 1.60742 5.95801 1.65902 7.12327C1.71062 8.28854 2.2601 9.39325 3.19681 10.215L8.19181 14.6642C8.6601 15.0774 9.29488 15.3095 9.95672 15.3095C10.6186 15.3095 11.2533 15.0774 11.7216 14.6642L16.7166 10.215C17.2086 9.79036 17.6007 9.28407 17.8704 8.72517C18.1402 8.16628 18.2822 7.5658 18.2884 6.95826C18.2946 6.35071 18.1648 5.74808 17.9065 5.18498C17.6482 4.62189 17.2664 4.10945 16.7832 3.6771V3.6771ZM15.6094 9.16331L10.6144 13.5758C10.537 13.6447 10.4449 13.6994 10.3435 13.7368C10.242 13.7741 10.1332 13.7933 10.0233 13.7933C9.91342 13.7933 9.8046 13.7741 9.70315 13.7368C9.60171 13.6994 9.50963 13.6447 9.43224 13.5758L4.43724 9.16331C3.78436 8.57376 3.41877 7.7818 3.41877 6.95706C3.41877 6.13231 3.78436 5.34036 4.43724 4.75081C5.10254 4.17056 5.99982 3.84519 6.93474 3.84519C7.86966 3.84519 8.76694 4.17056 9.43224 4.75081C9.50963 4.81974 9.60171 4.87445 9.70315 4.91178C9.8046 4.94912 9.91342 4.96834 10.0233 4.96834C10.1332 4.96834 10.242 4.94912 10.3435 4.91178C10.4449 4.87445 10.537 4.81974 10.6144 4.75081C11.2977 4.2705 12.1572 4.02916 13.029 4.07282C13.9008 4.11648 14.7239 4.44209 15.3414 4.98754C15.9589 5.53299 16.3275 6.26013 16.3769 7.03028C16.4263 7.80043 16.1531 8.5597 15.6094 9.16331V9.16331Z" fill="white"/>
</svg>
