<svg width="20" height="20" viewBox="0 0 20 20" fill="none" xmlns="http://www.w3.org/2000/svg">
<path d="M18.1007 16.9083L15.0075 13.8417C16.2082 12.3453 16.7897 10.4461 16.6323 8.53441C16.475 6.62275 15.5909 4.84398 14.1617 3.56387C12.7325 2.28375 10.8669 1.59959 8.94859 1.65206C7.03022 1.70452 5.20488 2.48963 3.84789 3.84595C2.49089 5.20226 1.70539 7.0267 1.6529 8.9441C1.6004 10.8615 2.28491 12.7261 3.56566 14.1546C4.84642 15.5831 6.62607 16.4668 8.5387 16.624C10.4513 16.7813 12.3515 16.2001 13.8486 15L16.9168 18.0667C16.9943 18.1448 17.0865 18.2068 17.1881 18.2491C17.2897 18.2914 17.3987 18.3132 17.5088 18.3132C17.6188 18.3132 17.7278 18.2914 17.8294 18.2491C17.931 18.2068 18.0232 18.1448 18.1007 18.0667C18.251 17.9113 18.335 17.7036 18.335 17.4875C18.335 17.2714 18.251 17.0637 18.1007 16.9083V16.9083ZM9.17126 15C8.01696 15 6.88858 14.6579 5.92881 14.0169C4.96905 13.3759 4.221 12.4649 3.77927 11.399C3.33754 10.3331 3.22196 9.16019 3.44715 8.02864C3.67235 6.89708 4.2282 5.85768 5.04441 5.04187C5.86062 4.22607 6.90054 3.6705 8.03267 3.44542C9.16479 3.22034 10.3383 3.33585 11.4047 3.77737C12.4711 4.21888 13.3826 4.96655 14.0239 5.92584C14.6652 6.88512 15.0075 8.01294 15.0075 9.16666C15.0075 10.7138 14.3926 12.1975 13.2981 13.2915C12.2036 14.3854 10.7191 15 9.17126 15V15Z" fill="white" fill-opacity="0.8"/>
</svg>
